<svg width="24" height="27" viewBox="0 0 24 27" fill="none" xmlns="http://www.w3.org/2000/svg">
<path d="M6.44325 13.7633L0.75 8.96658V6.53489C0.751787 5.75799 1.02742 5.01361 1.51644 4.46505C2.00546 3.91648 2.66792 3.60854 3.3585 3.60876C3.91575 3.60876 4.452 3.81211 4.90875 4.19686L6.4425 5.49117L6.44325 13.7633ZM1.5 8.5447L5.69325 12.0775V5.91305L4.4595 4.8727C4.1428 4.60183 3.75632 4.45434 3.3585 4.45251C2.4645 4.45251 1.5 5.24901 1.5 6.53489V8.5447ZM17.5568 13.7633V5.49117L19.0905 4.1977C19.5367 3.81653 20.0813 3.60973 20.6415 3.60876C21.3321 3.60854 21.9945 3.91648 22.4836 4.46505C22.9726 5.01361 23.2482 5.75799 23.25 6.53489V8.96658L17.5568 13.7633ZM18.3068 5.91305V12.0775L22.5 8.5447V6.53489C22.5 5.24901 21.5355 4.45251 20.6415 4.45251C20.2434 4.45403 19.8566 4.60155 19.5397 4.8727L18.3068 5.91305Z" fill="black"/>
<path d="M21.3923 22.7813H17.9318C17.8323 22.7813 17.7369 22.7368 17.6666 22.6577C17.5963 22.5786 17.5568 22.4713 17.5568 22.3594V14.7657C17.5568 14.6538 17.5963 14.5465 17.6666 14.4674C17.7369 14.3882 17.8323 14.3438 17.9318 14.3438C18.0312 14.3438 18.1266 14.3882 18.1969 14.4674C18.2672 14.5465 18.3068 14.6538 18.3068 14.7657V21.9375H21.3923C22.0028 21.9375 22.5 21.379 22.5 20.693V6.53488C22.5 5.73163 22.119 5.03807 21.48 4.67779C21.1734 4.50006 20.8283 4.42402 20.4847 4.45853C20.1412 4.49304 19.8135 4.63667 19.5397 4.8727L12.225 11.0371C12.16 11.0918 12.0811 11.1213 12 11.1213C11.9189 11.1213 11.84 11.0918 11.775 11.0371L4.4595 4.8727C4.18568 4.63722 3.85812 4.49391 3.51483 4.45941C3.17153 4.42491 2.82658 4.50064 2.52 4.67779C2.21115 4.84695 1.95133 5.11128 1.77076 5.44003C1.59019 5.76879 1.4963 6.14845 1.5 6.53488V20.693C1.5 21.379 1.99725 21.9375 2.60775 21.9375H5.69325V14.7657C5.69325 14.6538 5.73276 14.5465 5.80309 14.4674C5.87341 14.3882 5.96879 14.3438 6.06825 14.3438C6.16771 14.3438 6.26309 14.3882 6.33342 14.4674C6.40374 14.5465 6.44325 14.6538 6.44325 14.7657V22.3594C6.44325 22.4713 6.40374 22.5786 6.33342 22.6577C6.26309 22.7368 6.16771 22.7813 6.06825 22.7813H2.60775C2.11543 22.7808 1.64336 22.5607 1.29509 22.1693C0.946824 21.7778 0.750794 21.2469 0.75 20.693V6.53488C0.75 5.42282 1.29975 4.42213 2.18475 3.92348C2.61642 3.6786 3.1004 3.5745 3.58192 3.62296C4.06345 3.67142 4.52331 3.87051 4.9095 4.1977L12 10.1723L19.0905 4.1977C19.4768 3.8703 19.9368 3.67115 20.4185 3.62284C20.9002 3.57452 21.3843 3.67896 21.816 3.92432C22.2479 4.16541 22.6111 4.53773 22.8645 4.99912C23.118 5.4605 23.2515 5.99251 23.25 6.53488V20.693C23.2492 21.2469 23.0532 21.7778 22.7049 22.1693C22.3566 22.5607 21.8846 22.7808 21.3923 22.7813Z" fill="black"/>
<path d="M12 18.3397C11.9189 18.3398 11.8399 18.3102 11.775 18.2553L5.84326 13.2578C5.7636 13.1908 5.71086 13.0909 5.69666 12.9801C5.68245 12.8694 5.70794 12.7568 5.76751 12.6672C5.82709 12.5776 5.91587 12.5182 6.01432 12.5023C6.11278 12.4863 6.21285 12.5149 6.29251 12.582L12 17.3905L17.7068 12.582C17.7864 12.5149 17.8865 12.4863 17.985 12.5023C18.0834 12.5182 18.1722 12.5776 18.2318 12.6672C18.2913 12.7568 18.3168 12.8694 18.3026 12.9801C18.2884 13.0909 18.2357 13.1908 18.156 13.2578L12.225 18.2553C12.1601 18.3102 12.0812 18.3398 12 18.3397Z" fill="black"/>
</svg>
