<svg width="20" height="20" viewBox="0 0 20 20" fill="none" xmlns="http://www.w3.org/2000/svg">
<path d="M2.5 17.8125C2.45888 17.8127 2.41811 17.8048 2.38003 17.7893C2.34196 17.7737 2.30733 17.7508 2.27813 17.7218C2.23742 17.6821 2.20833 17.632 2.19402 17.5769C2.1797 17.5218 2.18069 17.4639 2.19688 17.4093L3.54688 12.0125C3.5642 11.9479 3.60175 11.8907 3.65401 11.8491C3.70626 11.8074 3.77048 11.7837 3.83724 11.7812C3.904 11.7788 3.96979 11.7978 4.02495 11.8355C4.08012 11.8731 4.12175 11.9275 4.14375 11.9906C4.23465 12.2404 4.37467 12.4695 4.55554 12.6643C4.73642 12.8592 4.95449 13.0158 5.19688 13.125C5.38692 13.2171 5.59427 13.2681 5.80537 13.2745C6.01647 13.281 6.22656 13.2428 6.42188 13.1625C6.47957 13.1372 6.54357 13.1299 6.60547 13.1416C6.66737 13.1533 6.72429 13.1835 6.76875 13.2281C6.81338 13.2726 6.84353 13.3295 6.85524 13.3914C6.86695 13.4533 6.85968 13.5173 6.83438 13.575C6.75406 13.7709 6.71616 13.9817 6.72316 14.1934C6.73016 14.4051 6.78191 14.6128 6.875 14.8031C6.98232 15.0446 7.13686 15.2621 7.32953 15.443C7.5222 15.6239 7.7491 15.7644 7.99688 15.8562C8.06156 15.878 8.11735 15.9203 8.15572 15.9767C8.19409 16.0331 8.21293 16.1006 8.20938 16.1687C8.20679 16.2359 8.18259 16.3005 8.14036 16.3529C8.09814 16.4052 8.04014 16.4426 7.975 16.4593L2.575 17.8125C2.55009 17.8155 2.52491 17.8155 2.5 17.8125ZM3.9625 12.9406L2.92813 17.0718L7.05938 16.0375C6.73429 15.775 6.47527 15.44 6.30313 15.0593C6.1332 14.6947 6.0662 14.2905 6.10938 13.8906C5.70942 13.9338 5.30526 13.8668 4.94063 13.6968C4.55994 13.5247 4.22493 13.2657 3.9625 12.9406Z" fill="black"/>
<path d="M7.89376 16.4626C7.86175 16.4686 7.8289 16.4686 7.79689 16.4626C7.46709 16.3442 7.1647 16.1602 6.90797 15.9218C6.65124 15.6833 6.44549 15.3953 6.30314 15.0751C6.13321 14.7105 6.06621 14.3063 6.10939 13.9064C5.70942 13.9495 5.30527 13.8825 4.94064 13.7126C4.62046 13.5702 4.33244 13.3645 4.09397 13.1078C3.8555 12.851 3.67152 12.5486 3.55314 12.2189C3.53616 12.1649 3.53418 12.1073 3.54739 12.0522C3.5606 11.9972 3.58851 11.9468 3.62814 11.9064L11.3844 4.12823C11.4429 4.07002 11.5221 4.03735 11.6047 4.03735C11.6873 4.03735 11.7665 4.07002 11.825 4.12823L13.8469 6.15323L15.8719 8.1751C15.9301 8.23365 15.9628 8.31286 15.9628 8.39541C15.9628 8.47797 15.9301 8.55718 15.8719 8.61573L8.12501 16.372C8.09471 16.4021 8.05855 16.4257 8.01878 16.4412C7.979 16.4568 7.93645 16.4641 7.89376 16.4626ZM6.56251 13.1407C6.61449 13.1405 6.6657 13.1533 6.71149 13.1779C6.75728 13.2025 6.79621 13.2382 6.82476 13.2816C6.85331 13.325 6.87057 13.3749 6.87497 13.4267C6.87938 13.4785 6.8708 13.5306 6.85001 13.5782C6.76773 13.7727 6.72742 13.9823 6.73173 14.1934C6.73604 14.4045 6.78486 14.6123 6.87501 14.8032C7.06426 15.2291 7.39567 15.576 7.81251 15.7845L15.2094 8.39698L11.6031 4.79073L4.21564 12.1876C4.4241 12.6044 4.77098 12.9359 5.19689 13.1251C5.38693 13.2172 5.59428 13.2682 5.80538 13.2747C6.01648 13.2811 6.22657 13.2429 6.42189 13.1626C6.46672 13.1456 6.51462 13.1381 6.56251 13.1407Z" fill="black"/>
<path d="M15.65 8.70928C15.6086 8.70911 15.5677 8.70074 15.5297 8.68464C15.4916 8.66855 15.4571 8.64506 15.4281 8.61553L11.3844 4.57178C11.3551 4.54273 11.3318 4.50817 11.316 4.47009C11.3001 4.43201 11.2919 4.39116 11.2919 4.34991C11.2919 4.30865 11.3001 4.26781 11.316 4.22973C11.3318 4.19165 11.3551 4.15708 11.3844 4.12803L12.3937 3.12491C12.4228 3.09562 12.4574 3.07237 12.4954 3.0565C12.5335 3.04064 12.5744 3.03247 12.6156 3.03247C12.6569 3.03247 12.6977 3.04064 12.7358 3.0565C12.7739 3.07237 12.8084 3.09562 12.8375 3.12491L14.8594 5.14991L16.875 7.16241C16.9043 7.19146 16.9275 7.22602 16.9434 7.2641C16.9593 7.30218 16.9674 7.34303 16.9674 7.38428C16.9674 7.42554 16.9593 7.46638 16.9434 7.50446C16.9275 7.54254 16.9043 7.57711 16.875 7.60616L15.8625 8.61553C15.8063 8.67292 15.7302 8.70649 15.65 8.70928ZM12.0469 4.34991L15.65 7.95303L16.2187 7.38428L12.6156 3.78116L12.0469 4.34991Z" fill="black"/>
<path d="M16.6625 7.69685C16.6214 7.69709 16.5806 7.6892 16.5425 7.67365C16.5045 7.6581 16.4698 7.63519 16.4406 7.60622L12.3781 3.55935C12.3492 3.53015 12.3263 3.49552 12.3107 3.45744C12.2952 3.41937 12.2873 3.3786 12.2875 3.33747C12.2887 3.25473 12.321 3.17548 12.3781 3.1156C12.9736 2.51928 13.7816 2.18394 14.6244 2.18335C15.4671 2.18276 16.2756 2.51698 16.8719 3.11247C17.4682 3.70797 17.8035 4.51596 17.8041 5.3587C17.8047 6.20144 17.4705 7.0099 16.875 7.60622C16.8184 7.66247 16.7423 7.69489 16.6625 7.69685ZM13.0719 3.34997L16.65 6.9281C17.0311 6.43748 17.22 5.8246 17.1812 5.20455C17.1424 4.5845 16.8786 3.99994 16.4393 3.56065C16 3.12135 15.4155 2.85754 14.7954 2.81875C14.1754 2.77995 13.5625 2.96886 13.0719 3.34997Z" fill="black"/>
<path d="M9.24375 9.375C9.20262 9.37524 9.16185 9.36736 9.12378 9.35181C9.0857 9.33626 9.05107 9.31334 9.02187 9.28438C8.96367 9.22583 8.931 9.14662 8.931 9.06407C8.931 8.98151 8.96367 8.9023 9.02187 8.84375L11.3844 6.48125C11.4429 6.42305 11.5221 6.39038 11.6047 6.39038C11.6872 6.39038 11.7664 6.42305 11.825 6.48125C11.8543 6.5103 11.8775 6.54487 11.8934 6.58295C11.9093 6.62103 11.9174 6.66188 11.9174 6.70313C11.9174 6.74438 11.9093 6.78523 11.8934 6.82331C11.8775 6.86139 11.8543 6.89595 11.825 6.925L9.46562 9.28438C9.43642 9.31334 9.40179 9.33626 9.36372 9.35181C9.32564 9.36736 9.28487 9.37524 9.24375 9.375Z" fill="black"/>
</svg>
