<svg width="180" height="184" viewBox="0 0 180 184" fill="none" xmlns="http://www.w3.org/2000/svg">
<g id="photo" clip-path="url(#clip0_108_528)" filter="url(#filter0_d_108_528)">
<path id="Vector" d="M90 175.865C137.496 175.865 176 136.496 176 87.9326C176 39.3688 137.496 0 90 0C42.5035 0 4 39.3688 4 87.9326C4 136.496 42.5035 175.865 90 175.865Z" fill="#739496"/>
<g id="Clip path group">
<mask id="mask0_108_528" style="mask-type:luminance" maskUnits="userSpaceOnUse" x="4" y="0" width="172" height="176">
<g id="b">
<path id="Vector_2" d="M90 175.865C137.496 175.865 176 136.496 176 87.9326C176 39.3688 137.496 0 90 0C42.5035 0 4 39.3688 4 87.9326C4 136.496 42.5035 175.865 90 175.865Z" fill="white"/>
</g>
</mask>
<g mask="url(#mask0_108_528)">
<path id="Vector_3" d="M115.8 133.482L163.788 147.023C169.292 148.958 173.592 153.179 176 158.63V175.865H4V158.63C6.236 153.179 10.708 148.958 16.212 147.023L64.2 133.482V107.278H115.8V133.482Z" fill="#E6C19C"/>
</g>
</g>
<g id="Clip path group_2">
<mask id="mask1_108_528" style="mask-type:luminance" maskUnits="userSpaceOnUse" x="4" y="0" width="172" height="176">
<g id="b_2">
<path id="Vector_4" d="M90 175.865C137.496 175.865 176 136.496 176 87.9326C176 39.3688 137.496 0 90 0C42.5035 0 4 39.3688 4 87.9326C4 136.496 42.5035 175.865 90 175.865Z" fill="white"/>
</g>
</mask>
<g mask="url(#mask1_108_528)">
<g id="Group">
<g id="Clip path group_3">
<mask id="mask2_108_528" style="mask-type:luminance" maskUnits="userSpaceOnUse" x="4" y="107" width="172" height="69">
<g id="d">
<path id="Vector_5" d="M115.8 133.482L163.788 147.023C169.292 148.958 173.592 153.179 176 158.63V175.865H4V158.63C6.236 153.179 10.708 148.958 16.212 147.023L64.2 133.482V107.278H115.8V133.482Z" fill="white"/>
</g>
</mask>
<g mask="url(#mask2_108_528)">
<path id="Vector_6" d="M4 102.002H176V175.865H4V102.002ZM90 154.762C108.92 154.762 124.4 143.682 124.4 130.14C124.4 116.599 108.92 105.519 90 105.519C71.08 105.519 55.6 116.599 55.6 130.14C55.6 143.682 71.08 154.762 90 154.762Z" fill="#E6A422"/>
</g>
</g>
<g id="Clip path group_4">
<mask id="mask3_108_528" style="mask-type:luminance" maskUnits="userSpaceOnUse" x="4" y="107" width="172" height="69">
<g id="d_2">
<path id="Vector_7" d="M115.8 133.482L163.788 147.023C169.292 148.958 173.592 153.179 176 158.63V175.865H4V158.63C6.236 153.179 10.708 148.958 16.212 147.023L64.2 133.482V107.278H115.8V133.482Z" fill="white"/>
</g>
</mask>
<g mask="url(#mask3_108_528)">
<path id="Vector_8" d="M90 137.175C87.076 137.175 83.292 136.471 80.712 135.24C77.788 133.658 66.952 124.513 63.168 120.644C58.352 115.368 55.944 108.685 55.256 97.2535C54.568 85.8223 51.644 45.0215 51.644 35.7007C51.644 22.5108 61.448 1.93457 89.656 1.93457H90C118.38 2.11044 128.012 22.5108 128.012 35.7007C128.012 45.0215 125.088 85.8223 124.4 97.2535C123.712 108.685 121.304 115.192 116.488 120.644C112.876 124.688 102.04 133.658 98.944 135.24C96.708 136.471 92.924 137.175 90 137.175Z" fill="#D4B08C"/>
</g>
</g>
<g id="Clip path group_5">
<mask id="mask4_108_528" style="mask-type:luminance" maskUnits="userSpaceOnUse" x="4" y="107" width="172" height="69">
<g id="d_3">
<path id="Vector_9" d="M115.8 133.482L163.788 147.023C169.292 148.958 173.592 153.179 176 158.63V175.865H4V158.63C6.236 153.179 10.708 148.958 16.212 147.023L64.2 133.482V107.278H115.8V133.482Z" fill="white"/>
</g>
</mask>
<g mask="url(#mask4_108_528)">
<path id="Vector_10" d="M89.9999 102.002C68.1559 102.002 50.4399 115.016 50.4399 131.02C50.4399 147.023 68.1559 160.037 89.9999 160.037C111.844 160.037 129.56 147.023 129.56 131.02C129.56 115.016 111.844 102.002 89.9999 102.002ZM89.9999 153.003C71.9399 153.003 57.3199 142.451 57.3199 129.261C57.3199 116.071 71.9399 105.519 89.9999 105.519C108.06 105.519 122.68 116.071 122.68 129.261C122.68 142.451 108.06 153.003 89.9999 153.003Z" fill="#D98C21"/>
</g>
</g>
</g>
</g>
</g>
<path id="Vector_11" d="M90.0001 130.14C87.4201 130.14 83.9801 129.613 81.7441 128.557C78.9921 127.326 69.3601 120.468 66.0921 117.478C61.7921 113.433 59.5561 108.509 58.8681 99.8914C58.1801 91.274 55.6001 60.6735 55.6001 53.6389C55.6001 43.6146 64.3721 28.1384 90.0001 28.1384C115.628 28.1384 124.4 43.6146 124.4 53.6389C124.4 60.6735 121.82 91.4499 121.132 100.067C120.444 108.685 118.38 113.609 113.908 117.654C110.64 120.644 100.836 127.502 98.2561 128.733C96.0201 129.613 92.5801 130.14 90.0001 130.14Z" fill="#F2CEA5"/>
<path id="Vector_12" d="M102.04 108.157C98.772 111.674 93.096 113.433 88.108 112.378C83.464 111.323 80.024 108.861 78.304 104.816L102.04 108.157Z" fill="#A3705F"/>
<path id="Vector_13" d="M102.04 108.157C98.772 111.674 93.096 113.433 88.108 112.378C83.464 111.323 80.024 108.861 78.304 104.816L102.04 108.157Z" stroke="#A3705F" stroke-linecap="round" stroke-linejoin="round"/>
<g id="Clip path group_6">
<mask id="mask5_108_528" style="mask-type:luminance" maskUnits="userSpaceOnUse" x="62" y="72" width="54" height="9">
<g id="f">
<path id="Vector_14" d="M62.48 72.1047H115.8V80.898H62.48V72.1047Z" fill="white"/>
</g>
</mask>
<g mask="url(#mask5_108_528)">
<path id="Vector_15" d="M105.48 82.6567C107.38 82.6567 108.92 81.0819 108.92 79.1394C108.92 77.1968 107.38 75.6221 105.48 75.6221C103.58 75.6221 102.04 77.1968 102.04 79.1394C102.04 81.0819 103.58 82.6567 105.48 82.6567Z" fill="#291F21"/>
</g>
</g>
<g id="Clip path group_7">
<mask id="mask6_108_528" style="mask-type:luminance" maskUnits="userSpaceOnUse" x="62" y="72" width="54" height="9">
<g id="f_2">
<path id="Vector_16" d="M62.48 72.1047H115.8V80.898H62.48V72.1047Z" fill="white"/>
</g>
</mask>
<g mask="url(#mask6_108_528)">
<path id="Vector_17" d="M74.5201 82.6567C76.4199 82.6567 77.9601 81.0819 77.9601 79.1394C77.9601 77.1968 76.4199 75.6221 74.5201 75.6221C72.6202 75.6221 71.0801 77.1968 71.0801 79.1394C71.0801 81.0819 72.6202 82.6567 74.5201 82.6567Z" fill="#291F21"/>
</g>
</g>
<path id="Vector_18" d="M64.2 73.8634C64.2 73.8634 66.092 68.5874 74.692 68.5874C80.54 68.5874 83.98 71.2254 85.7 73.8634" stroke="#CC9872" stroke-width="2"/>
<path id="Vector_19" d="M115.972 73.8634C115.972 73.8634 114.08 68.5874 105.48 68.5874C97.2239 68.5874 93.4399 73.8634 93.4399 77.3807V93.2085" stroke="#BB8660" stroke-width="2"/>
<path id="Vector_20" d="M122.336 84.767C122.336 84.767 123.712 73.6875 128.7 72.1047C129.388 68.9392 131.28 59.7942 131.28 54.6941C131.28 49.594 130.764 44.6698 128.012 40.449C124.916 35.8765 118.38 33.2385 114.94 33.2385C110.984 35.7006 101.696 41.3283 98.772 44.6698C97.224 46.4284 99.46 47.8353 99.46 47.8353C99.46 47.8353 101.524 46.956 102.384 46.7801C106.684 45.5491 116.144 44.6698 119.068 49.0664C122.68 54.3423 122.68 69.8185 122.68 72.1047C122.68 74.2151 122.336 84.767 122.336 84.767Z" fill="black"/>
<path id="Vector_21" d="M51.3 72.1047C56.288 73.8634 57.664 84.767 57.664 84.767C57.664 84.767 57.32 74.2151 57.32 72.1047C57.32 69.2909 57.664 56.101 63.168 49.7698C69.36 42.7352 77.616 40.449 82.26 43.6145C84.668 45.1973 92.752 53.2871 101.352 46.6043C106.512 42.5594 115.972 33.4144 115.972 33.4144C115.972 33.4144 110.984 17.7624 88.28 19.521C78.648 20.4003 67.984 17.9382 67.984 17.9382C67.984 17.9382 67.812 22.3349 69.532 24.6211C55.256 28.8419 50.612 39.3938 49.236 47.4836C48.892 49.0664 48.72 50.6492 48.72 52.2319V54.6941C48.72 59.7941 50.612 68.7633 51.3 72.1047Z" fill="black"/>
</g>
<defs>
<filter id="filter0_d_108_528" x="0" y="0" width="180" height="183.865" filterUnits="userSpaceOnUse" color-interpolation-filters="sRGB">
<feFlood flood-opacity="0" result="BackgroundImageFix"/>
<feColorMatrix in="SourceAlpha" type="matrix" values="0 0 0 0 0 0 0 0 0 0 0 0 0 0 0 0 0 0 127 0" result="hardAlpha"/>
<feOffset dy="4"/>
<feGaussianBlur stdDeviation="2"/>
<feComposite in2="hardAlpha" operator="out"/>
<feColorMatrix type="matrix" values="0 0 0 0 0 0 0 0 0 0 0 0 0 0 0 0 0 0 0.4 0"/>
<feBlend mode="normal" in2="BackgroundImageFix" result="effect1_dropShadow_108_528"/>
<feBlend mode="normal" in="SourceGraphic" in2="effect1_dropShadow_108_528" result="shape"/>
</filter>
<clipPath id="clip0_108_528">
<rect width="172" height="175.865" fill="white" transform="translate(4)"/>
</clipPath>
</defs>
</svg>
