<svg width="81" height="82" viewBox="0 0 81 82" fill="none" xmlns="http://www.w3.org/2000/svg">
<g clip-path="url(#clip0_108_296)">
<path d="M40.5 81.8988C62.5914 81.8988 80.5 63.5878 80.5 41C80.5 18.4121 62.5914 0.101074 40.5 0.101074C18.4086 0.101074 0.5 18.4121 0.5 41C0.5 63.5878 18.4086 81.8988 40.5 81.8988Z" fill="#967373"/>
<mask id="mask0_108_296" style="mask-type:luminance" maskUnits="userSpaceOnUse" x="0" y="0" width="81" height="82">
<path d="M40.5 81.8988C62.5914 81.8988 80.5 63.5878 80.5 41C80.5 18.4121 62.5914 0.101074 40.5 0.101074C18.4086 0.101074 0.5 18.4121 0.5 41C0.5 63.5878 18.4086 81.8988 40.5 81.8988Z" fill="white"/>
</mask>
<g mask="url(#mask0_108_296)">
<path d="M52.5 62.1857L74.82 68.4841C77.38 69.3839 79.38 71.347 80.5 73.8827V81.8989H0.5V73.8827C1.54 71.347 3.62 69.3839 6.18 68.4841L28.5 62.1857V49.9978H52.5V62.1857Z" fill="#E6C19C"/>
</g>
<mask id="mask1_108_296" style="mask-type:luminance" maskUnits="userSpaceOnUse" x="0" y="0" width="81" height="82">
<path d="M40.5 81.8988C62.5914 81.8988 80.5 63.5878 80.5 41C80.5 18.4121 62.5914 0.101074 40.5 0.101074C18.4086 0.101074 0.5 18.4121 0.5 41C0.5 63.5878 18.4086 81.8988 40.5 81.8988Z" fill="white"/>
</mask>
<g mask="url(#mask1_108_296)">
<mask id="mask2_108_296" style="mask-type:luminance" maskUnits="userSpaceOnUse" x="0" y="49" width="81" height="33">
<path d="M52.5 62.1857L74.82 68.4841C77.38 69.3839 79.38 71.347 80.5 73.8827V81.8989H0.5V73.8827C1.54 71.347 3.62 69.3839 6.18 68.4841L28.5 62.1857V49.9978H52.5V62.1857Z" fill="white"/>
</mask>
<g mask="url(#mask2_108_296)">
<path d="M0.5 47.5439H80.5V81.899H0.5V47.5439ZM40.5 72.0833C49.3 72.0833 56.5 66.93 56.5 60.6316C56.5 54.3332 49.3 49.1799 40.5 49.1799C31.7 49.1799 24.5 54.3332 24.5 60.6316C24.5 66.93 31.7 72.0833 40.5 72.0833Z" fill="#E6A422"/>
</g>
<mask id="mask3_108_296" style="mask-type:luminance" maskUnits="userSpaceOnUse" x="0" y="49" width="81" height="33">
<path d="M52.5 62.1857L74.82 68.4841C77.38 69.3839 79.38 71.347 80.5 73.8827V81.8989H0.5V73.8827C1.54 71.347 3.62 69.3839 6.18 68.4841L28.5 62.1857V49.9978H52.5V62.1857Z" fill="white"/>
</mask>
<g mask="url(#mask3_108_296)">
<path d="M40.5 63.9035C39.14 63.9035 37.38 63.5763 36.18 63.0037C34.82 62.2675 29.78 58.014 28.02 56.2145C25.78 53.7605 24.66 50.6522 24.34 45.3354C24.02 40.0185 22.66 21.0414 22.66 16.7061C22.66 10.5713 27.22 1.00098 40.34 1.00098H40.5C53.7 1.08277 58.18 10.5713 58.18 16.7061C58.18 21.0414 56.82 40.0185 56.5 45.3354C56.18 50.6522 55.06 53.6787 52.82 56.2145C51.14 58.0958 46.1 62.2675 44.66 63.0037C43.62 63.5763 41.86 63.9035 40.5 63.9035Z" fill="#D4B08C"/>
</g>
<mask id="mask4_108_296" style="mask-type:luminance" maskUnits="userSpaceOnUse" x="0" y="49" width="81" height="33">
<path d="M52.5 62.1857L74.82 68.4841C77.38 69.3839 79.38 71.347 80.5 73.8827V81.8989H0.5V73.8827C1.54 71.347 3.62 69.3839 6.18 68.4841L28.5 62.1857V49.9978H52.5V62.1857Z" fill="white"/>
</mask>
<g mask="url(#mask4_108_296)">
<path d="M40.5 47.5439C30.34 47.5439 22.1 53.597 22.1 61.0406C22.1 68.4842 30.34 74.5372 40.5 74.5372C50.66 74.5372 58.9 68.4842 58.9 61.0406C58.9 53.597 50.66 47.5439 40.5 47.5439ZM40.5 71.2653C32.1 71.2653 25.3 66.3574 25.3 60.2226C25.3 54.0878 32.1 49.1799 40.5 49.1799C48.9 49.1799 55.7 54.0878 55.7 60.2226C55.7 66.3574 48.9 71.2653 40.5 71.2653Z" fill="#D98C21"/>
</g>
</g>
<path d="M40.5 60.6314C39.3 60.6314 37.7 60.386 36.66 59.8952C35.38 59.3227 30.9 56.1325 29.38 54.742C27.38 52.8606 26.34 50.5703 26.02 46.5622C25.7 42.5541 24.5 28.3213 24.5 25.0494C24.5 20.3869 28.58 13.1887 40.5 13.1887C52.42 13.1887 56.5 20.3869 56.5 25.0494C56.5 28.3213 55.3 42.6359 54.98 46.644C54.66 50.6521 53.7 52.9424 51.62 54.8238C50.1 56.2143 45.54 59.4044 44.34 59.977C43.3 60.386 41.7 60.6314 40.5 60.6314Z" fill="#F2CEA5"/>
<path d="M46.1 50.4067C44.58 52.0427 41.94 52.8606 39.62 52.3698C37.46 51.8791 35.86 50.7339 35.06 48.8525L46.1 50.4067Z" fill="#A3705F"/>
<path d="M46.1 50.4067C44.58 52.0427 41.94 52.8606 39.62 52.3698C37.46 51.8791 35.86 50.7339 35.06 48.8525L46.1 50.4067Z" stroke="#A3705F" stroke-linecap="round" stroke-linejoin="round"/>
<mask id="mask5_108_296" style="mask-type:luminance" maskUnits="userSpaceOnUse" x="27" y="33" width="26" height="5">
<path d="M27.7 33.6382H52.5V37.7281H27.7V33.6382Z" fill="white"/>
</mask>
<g mask="url(#mask5_108_296)">
<path d="M47.7 38.5461C48.5836 38.5461 49.3 37.8136 49.3 36.9101C49.3 36.0066 48.5836 35.2742 47.7 35.2742C46.8163 35.2742 46.1 36.0066 46.1 36.9101C46.1 37.8136 46.8163 38.5461 47.7 38.5461Z" fill="#291F21"/>
</g>
<mask id="mask6_108_296" style="mask-type:luminance" maskUnits="userSpaceOnUse" x="27" y="33" width="26" height="5">
<path d="M27.7 33.6382H52.5V37.7281H27.7V33.6382Z" fill="white"/>
</mask>
<g mask="url(#mask6_108_296)">
<path d="M33.3 38.5461C34.1837 38.5461 34.9 37.8136 34.9 36.9101C34.9 36.0066 34.1837 35.2742 33.3 35.2742C32.4163 35.2742 31.7 36.0066 31.7 36.9101C31.7 37.8136 32.4163 38.5461 33.3 38.5461Z" fill="#291F21"/>
</g>
<path d="M28.5 34.4561C28.5 34.4561 29.38 32.0022 33.38 32.0022C36.1 32.0022 37.7 33.2292 38.5 34.4561" stroke="#CC9872" stroke-width="2"/>
<path d="M52.58 34.4561C52.58 34.4561 51.7 32.0022 47.7 32.0022C43.86 32.0022 42.1 34.4561 42.1 36.0921V43.4539" stroke="#BB8660" stroke-width="2"/>
<path d="M55.54 39.5275C55.54 39.5275 56.18 34.3743 58.5 33.6381C58.82 32.1657 59.7 27.9122 59.7 25.5401C59.7 23.168 59.46 20.8776 58.18 18.9145C56.74 16.7878 53.7 15.5608 52.1 15.5608C50.26 16.706 45.94 19.3235 44.58 20.8776C43.86 21.6956 44.9 22.35 44.9 22.35C44.9 22.35 45.86 21.941 46.26 21.8592C48.26 21.2866 52.66 20.8776 54.02 22.9226C55.7 25.3765 55.7 32.5747 55.7 33.6381C55.7 34.6197 55.54 39.5275 55.54 39.5275Z" fill="#452228"/>
<path d="M22.5 33.638C24.82 34.456 25.46 39.5275 25.46 39.5275C25.46 39.5275 25.3 34.6196 25.3 33.638C25.3 32.3293 25.46 26.1944 28.02 23.2497C30.9 19.9778 34.74 18.9144 36.9 20.3868C38.02 21.123 41.78 24.8857 45.78 21.7774C48.18 19.896 52.58 15.6425 52.58 15.6425C52.58 15.6425 50.26 8.36254 39.7 9.18051C35.22 9.5895 30.26 8.44434 30.26 8.44434C30.26 8.44434 30.18 10.4893 30.98 11.5527C24.34 13.5158 22.18 18.4237 21.54 22.1864C21.38 22.9225 21.3 23.6587 21.3 24.3949V25.5401C21.3 27.9122 22.18 32.0839 22.5 33.638Z" fill="#6B363E"/>
</g>
<defs>
<clipPath id="clip0_108_296">
<rect width="80" height="81.7978" fill="white" transform="translate(0.5 0.101074)"/>
</clipPath>
</defs>
</svg>
