<svg width="505" height="418" viewBox="0 0 505 418" fill="none" xmlns="http://www.w3.org/2000/svg">
<g filter="url(#filter0_d_110_1914)">
<path d="M205.149 404.938H187.79C181.931 404.938 176.312 403.011 172.168 399.581C168.025 396.152 165.697 391.5 165.697 386.65V228.594C165.697 223.397 168.191 218.413 172.63 214.739C177.07 211.064 183.09 209 189.368 209H205.149C211.427 209 217.448 211.064 221.887 214.739C226.326 218.413 228.82 223.397 228.82 228.594V385.344C228.82 390.54 226.326 395.524 221.887 399.199C217.448 402.873 211.427 404.938 205.149 404.938ZM426.079 404.938H408.72C402.861 404.938 397.241 403.011 393.098 399.581C388.955 396.152 386.627 391.5 386.627 386.65V169.812C386.627 164.616 389.121 159.632 393.56 155.958C398 152.283 404.02 150.219 410.298 150.219H426.079C432.357 150.219 438.378 152.283 442.817 155.958C447.256 159.632 449.75 164.616 449.75 169.812V385.344C449.75 390.54 447.256 395.524 442.817 399.199C438.378 402.873 432.357 404.938 426.079 404.938ZM315.614 404.938H298.255C292.396 404.938 286.776 403.011 282.633 399.581C278.49 396.152 276.162 391.5 276.162 386.65V254.719C276.162 249.522 278.656 244.538 283.095 240.864C287.535 237.189 293.555 235.125 299.833 235.125H315.614C321.892 235.125 327.913 237.189 332.352 240.864C336.791 244.538 339.285 249.522 339.285 254.719V385.344C339.285 390.54 336.791 395.524 332.352 399.199C327.913 402.873 321.892 404.938 315.614 404.938ZM118.355 293.906V385.344C118.355 390.54 115.861 395.524 111.422 399.199C106.983 402.873 100.962 404.938 94.6842 404.938H77.3254C74.4241 404.938 71.5512 404.464 68.8708 403.545C66.1903 402.626 63.7548 401.279 61.7033 399.581C57.5601 396.152 55.2324 391.5 55.2324 386.65V293.906C55.2324 288.71 57.7263 283.726 62.1655 280.051C66.6047 276.377 72.6255 274.312 78.9035 274.312H94.6842C100.962 274.312 106.983 276.377 111.422 280.051C115.861 283.726 118.355 288.71 118.355 293.906Z" fill="#879CCF"/>
<path d="M58.7278 233.858C57.5948 233.862 56.4731 233.672 55.433 233.3C54.3929 232.928 53.4569 232.382 52.6838 231.696L18.9368 201.959C17.4354 200.63 16.6308 198.863 16.6988 197.045C16.7668 195.226 17.7019 193.504 19.2997 192.254L183.238 63.647C184.807 62.4261 186.889 61.7589 189.042 61.7869C191.196 61.815 193.251 62.536 194.773 63.7973L280.684 134.903L386.059 59.2254L362.041 39.3573C360.999 38.5036 360.265 37.4266 359.922 36.247C359.578 35.0674 359.638 33.8319 360.095 32.679C360.553 31.5261 361.389 30.5015 362.51 29.7199C363.631 28.9383 364.993 28.4308 366.444 28.2542L477.635 14.3688C478.855 14.2167 480.101 14.3036 481.273 14.6225C482.445 14.9414 483.511 15.4833 484.384 16.2049C485.257 16.9264 485.914 17.8074 486.301 18.7771C486.688 19.7467 486.795 20.7781 486.614 21.7883L470.044 113.879C469.834 115.081 469.224 116.211 468.281 117.142C467.338 118.072 466.101 118.767 464.707 119.148C463.314 119.528 461.82 119.58 460.393 119.296C458.966 119.013 457.663 118.406 456.631 117.543L432.691 97.8316L283.934 205.552C282.354 206.716 280.295 207.336 278.18 207.285C276.064 207.234 274.053 206.516 272.556 205.277L187.656 134.994L64.401 231.997C62.8676 233.195 60.837 233.862 58.7278 233.858Z" fill="#879CCF"/>
</g>
<defs>
<filter id="filter0_d_110_1914" x="-4" y="0" width="512.982" height="426" filterUnits="userSpaceOnUse" color-interpolation-filters="sRGB">
<feFlood flood-opacity="0" result="BackgroundImageFix"/>
<feColorMatrix in="SourceAlpha" type="matrix" values="0 0 0 0 0 0 0 0 0 0 0 0 0 0 0 0 0 0 127 0" result="hardAlpha"/>
<feOffset dy="4"/>
<feGaussianBlur stdDeviation="2"/>
<feComposite in2="hardAlpha" operator="out"/>
<feColorMatrix type="matrix" values="0 0 0 0 0 0 0 0 0 0 0 0 0 0 0 0 0 0 0.4 0"/>
<feBlend mode="normal" in2="BackgroundImageFix" result="effect1_dropShadow_110_1914"/>
<feBlend mode="normal" in="SourceGraphic" in2="effect1_dropShadow_110_1914" result="shape"/>
</filter>
</defs>
</svg>
