<svg width="111" height="29" viewBox="0 0 111 29" fill="none" xmlns="http://www.w3.org/2000/svg">
<g filter="url(#filter0_d_383_2)">
<path d="M11.43 20.26C9.142 20.26 7.426 19.5147 6.282 18.024C5.138 16.516 4.566 14.2713 4.566 11.29V9.73C4.566 6.74867 5.12933 4.51267 6.256 3.022C7.38267 1.514 9.07267 0.76 11.326 0.76C11.9153 0.76 12.5133 0.812 13.12 0.915999C13.7267 1.02 14.264 1.176 14.732 1.384V7.91H11.846V1.904L13.276 4.088C12.652 3.58533 11.9673 3.334 11.222 3.334C10.0087 3.334 9.09 3.88867 8.466 4.998C7.842 6.10733 7.53 7.754 7.53 9.938V11.082C7.53 13.4047 7.868 15.086 8.544 16.126C9.22 17.166 10.286 17.686 11.742 17.686C12.1927 17.686 12.678 17.6427 13.198 17.556C13.7353 17.4693 14.2467 17.3567 14.732 17.218V19.896C14.2467 20 13.7007 20.0867 13.094 20.156C12.5047 20.2253 11.95 20.26 11.43 20.26ZM23 20.26C21.6133 20.26 20.504 19.974 19.672 19.402C18.8573 18.8127 18.2593 17.8593 17.878 16.542C17.514 15.2247 17.332 13.474 17.332 11.29V9.73C17.332 7.52867 17.514 5.778 17.878 4.478C18.2593 3.16067 18.8573 2.216 19.672 1.644C20.504 1.05467 21.6133 0.76 23 0.76C24.3867 0.76 25.4873 1.05467 26.302 1.644C27.134 2.216 27.732 3.16067 28.096 4.478C28.4773 5.778 28.668 7.52867 28.668 9.73V11.29C28.668 13.474 28.4773 15.2247 28.096 16.542C27.732 17.8593 27.134 18.8127 26.302 19.402C25.4873 19.974 24.3867 20.26 23 20.26ZM23 17.712C23.728 17.712 24.2827 17.53 24.664 17.166C25.0453 16.7847 25.314 16.1173 25.47 15.164C25.626 14.2107 25.704 12.85 25.704 11.082V9.938C25.704 8.17 25.626 6.80933 25.47 5.856C25.314 4.90267 25.0453 4.244 24.664 3.88C24.2827 3.49867 23.728 3.308 23 3.308C22.2893 3.308 21.7347 3.49867 21.336 3.88C20.9547 4.244 20.686 4.90267 20.53 5.856C20.374 6.80933 20.296 8.17 20.296 9.938V11.082C20.296 12.85 20.374 14.2107 20.53 15.164C20.686 16.1173 20.9547 16.7847 21.336 17.166C21.7347 17.53 22.2893 17.712 23 17.712ZM29.812 20L34.31 1.02H37.69L42.188 20H39.25L36.052 4.452H35.948L32.75 20H29.812ZM32.386 15.398V12.902H39.614V15.398H32.386ZM50.43 20.26C48.142 20.26 46.426 19.5147 45.282 18.024C44.138 16.516 43.566 14.2713 43.566 11.29V9.73C43.566 6.74867 44.1293 4.51267 45.256 3.022C46.3827 1.514 48.0727 0.76 50.326 0.76C50.9153 0.76 51.5133 0.812 52.12 0.915999C52.7267 1.02 53.264 1.176 53.732 1.384V7.91H50.846V1.904L52.276 4.088C51.652 3.58533 50.9673 3.334 50.222 3.334C49.0087 3.334 48.09 3.88867 47.466 4.998C46.842 6.10733 46.53 7.754 46.53 9.938V11.082C46.53 13.4047 46.868 15.086 47.544 16.126C48.22 17.166 49.286 17.686 50.742 17.686C51.1927 17.686 51.678 17.6427 52.198 17.556C52.7353 17.4693 53.2467 17.3567 53.732 17.218V19.896C53.2467 20 52.7007 20.0867 52.094 20.156C51.5047 20.2253 50.95 20.26 50.43 20.26ZM56.722 20V1.02H59.608V8.69H64.392V1.02H67.278V20H64.392V11.238H59.608V20H56.722ZM69.722 20V1.02H72.608V8.69H77.392V1.02H80.278V20H77.392V11.238H72.608V20H69.722ZM88 20.26C86.18 20.26 84.8453 19.8353 83.996 18.986C83.1467 18.1193 82.722 16.7673 82.722 14.93V1.02H85.608V14.618C85.608 15.7273 85.79 16.5247 86.154 17.01C86.5353 17.478 87.1507 17.712 88 17.712C88.8667 17.712 89.482 17.478 89.846 17.01C90.21 16.5247 90.392 15.7273 90.392 14.618V1.02H93.278V14.93C93.278 16.7673 92.8533 18.1193 92.004 18.986C91.1547 19.8353 89.82 20.26 88 20.26ZM99.96 20.26C99.4747 20.26 98.894 20.234 98.218 20.182C97.542 20.1473 96.7967 20.0693 95.982 19.948V1.072C96.814 0.950666 97.5593 0.872666 98.218 0.837999C98.894 0.785999 99.4747 0.76 99.96 0.76C102.092 0.76 103.678 1.15 104.718 1.93C105.758 2.69267 106.278 3.86267 106.278 5.44C106.278 6.532 106.035 7.45933 105.55 8.222C105.065 8.96733 104.363 9.47 103.444 9.73V9.834C104.553 10.094 105.385 10.6313 105.94 11.446C106.512 12.2607 106.798 13.3353 106.798 14.67C106.798 16.5593 106.235 17.9633 105.108 18.882C103.981 19.8007 102.265 20.26 99.96 20.26ZM98.296 17.374C98.608 17.4953 98.92 17.5907 99.232 17.66C99.544 17.712 99.8993 17.738 100.298 17.738C101.511 17.738 102.404 17.4693 102.976 16.932C103.548 16.3773 103.834 15.5367 103.834 14.41C103.834 13.2833 103.539 12.46 102.95 11.94C102.378 11.42 101.459 11.16 100.194 11.16H97.438V8.768H99.882C101.078 8.768 101.953 8.54267 102.508 8.092C103.08 7.64133 103.366 6.93933 103.366 5.986C103.366 5.06733 103.115 4.39133 102.612 3.958C102.109 3.50733 101.338 3.282 100.298 3.282C99.9513 3.282 99.6047 3.308 99.258 3.36C98.9287 3.412 98.608 3.50733 98.296 3.646L98.868 2.684V18.336L98.296 17.374Z" fill="black"/>
</g>
<defs>
<filter id="filter0_d_383_2" x="0.565979" y="0.76001" width="110.232" height="27.5" filterUnits="userSpaceOnUse" color-interpolation-filters="sRGB">
<feFlood flood-opacity="0" result="BackgroundImageFix"/>
<feColorMatrix in="SourceAlpha" type="matrix" values="0 0 0 0 0 0 0 0 0 0 0 0 0 0 0 0 0 0 127 0" result="hardAlpha"/>
<feOffset dy="4"/>
<feGaussianBlur stdDeviation="2"/>
<feComposite in2="hardAlpha" operator="out"/>
<feColorMatrix type="matrix" values="0 0 0 0 0 0 0 0 0 0 0 0 0 0 0 0 0 0 0.4 0"/>
<feBlend mode="normal" in2="BackgroundImageFix" result="effect1_dropShadow_383_2"/>
<feBlend mode="normal" in="SourceGraphic" in2="effect1_dropShadow_383_2" result="shape"/>
</filter>
</defs>
</svg>
