<svg width="57" height="55" viewBox="0 0 57 55" fill="none" xmlns="http://www.w3.org/2000/svg">
<g filter="url(#filter0_d_216_198)">
<path d="M28.4991 26.0218L20.4171 30.2708C19.3221 30.8468 18.0421 29.9168 18.2511 28.6968L19.7951 19.6978L13.2571 13.3248C12.3711 12.4608 12.8601 10.9568 14.0841 10.7788L23.1201 9.4658L27.1611 1.27779C27.7091 0.168795 29.2911 0.168795 29.8381 1.27779L33.8791 9.4658L42.9151 10.7788C44.1391 10.9568 44.6281 12.4618 43.7421 13.3248L37.2041 19.6978L38.7481 28.6968C38.9571 29.9158 37.6771 30.8458 36.5821 30.2708L28.4991 26.0218Z" fill="#D9DCE1"/>
<path d="M11.7867 44.6216L8.25573 46.4776C7.77773 46.7296 7.21773 46.3226 7.30973 45.7896L7.98373 41.8576L5.12673 39.0726C4.73973 38.6956 4.95373 38.0376 5.48773 37.9606L9.43573 37.3866L11.2007 33.8096C11.4397 33.3246 12.1307 33.3246 12.3707 33.8096L14.1357 37.3866L18.0837 37.9606C18.6187 38.0386 18.8327 38.6956 18.4447 39.0726L15.5877 41.8576L16.2617 45.7896C16.3527 46.3226 15.7937 46.7286 15.3157 46.4776L11.7867 44.6216Z" fill="#56AAFF"/>
<path d="M28.5006 44.6216L24.9696 46.4776C24.4916 46.7296 23.9316 46.3226 24.0236 45.7896L24.6976 41.8576L21.8406 39.0726C21.4536 38.6956 21.6676 38.0376 22.2016 37.9606L26.1496 37.3866L27.9146 33.8096C28.1536 33.3246 28.8446 33.3246 29.0846 33.8096L30.8496 37.3866L34.7976 37.9606C35.3326 38.0386 35.5466 38.6956 35.1586 39.0726L32.3016 41.8576L32.9756 45.7896C33.0666 46.3226 32.5076 46.7286 32.0296 46.4776L28.5006 44.6216Z" fill="#56AAFF"/>
<path d="M45.214 44.6216L41.683 46.4776C41.205 46.7296 40.645 46.3226 40.737 45.7896L41.411 41.8576L38.554 39.0726C38.167 38.6956 38.381 38.0376 38.915 37.9606L42.863 37.3866L44.628 33.8096C44.867 33.3246 45.558 33.3246 45.798 33.8096L47.563 37.3866L51.511 37.9606C52.046 38.0386 52.26 38.6956 51.872 39.0726L49.015 41.8576L49.689 45.7896C49.78 46.3226 49.221 46.7286 48.743 46.4776L45.214 44.6216Z" fill="#56AAFF"/>
</g>
<defs>
<filter id="filter0_d_216_198" x="0.929199" y="0.446045" width="55.1411" height="54.1079" filterUnits="userSpaceOnUse" color-interpolation-filters="sRGB">
<feFlood flood-opacity="0" result="BackgroundImageFix"/>
<feColorMatrix in="SourceAlpha" type="matrix" values="0 0 0 0 0 0 0 0 0 0 0 0 0 0 0 0 0 0 127 0" result="hardAlpha"/>
<feOffset dy="4"/>
<feGaussianBlur stdDeviation="2"/>
<feComposite in2="hardAlpha" operator="out"/>
<feColorMatrix type="matrix" values="0 0 0 0 0 0 0 0 0 0 0 0 0 0 0 0 0 0 0.4 0"/>
<feBlend mode="normal" in2="BackgroundImageFix" result="effect1_dropShadow_216_198"/>
<feBlend mode="normal" in="SourceGraphic" in2="effect1_dropShadow_216_198" result="shape"/>
</filter>
</defs>
</svg>
