<svg width="69" height="22" viewBox="0 0 69 22" fill="none" xmlns="http://www.w3.org/2000/svg">
<g filter="url(#filter0_d_219_35)">
<path d="M10.8575 11.1755L7.32653 13.0315C6.84853 13.2835 6.28853 12.8765 6.38053 12.3435L7.05453 8.41151L4.19753 5.62651C3.81053 5.24951 4.02453 4.59151 4.55853 4.51451L8.50653 3.94051L10.2715 0.363506C10.5105 -0.121494 11.2015 -0.121494 11.4415 0.363506L13.2065 3.94051L17.1545 4.51451C17.6895 4.59251 17.9035 5.24951 17.5155 5.62651L14.6585 8.41151L15.3325 12.3435C15.4235 12.8765 14.8645 13.2825 14.3865 13.0315L10.8575 11.1755Z" fill="#56AAFF"/>
<path d="M26.5714 11.1755L23.0404 13.0315C22.5624 13.2835 22.0024 12.8765 22.0944 12.3435L22.7684 8.41151L19.9114 5.62651C19.5244 5.24951 19.7384 4.59151 20.2724 4.51451L24.2204 3.94051L25.9854 0.363506C26.2244 -0.121494 26.9154 -0.121494 27.1554 0.363506L28.9204 3.94051L32.8684 4.51451C33.4034 4.59251 33.6174 5.24951 33.2294 5.62651L30.3724 8.41151L31.0464 12.3435C31.1374 12.8765 30.5784 13.2825 30.1004 13.0315L26.5714 11.1755Z" fill="#56AAFF"/>
<path d="M42.2853 11.1755L38.7543 13.0315C38.2763 13.2835 37.7163 12.8765 37.8083 12.3435L38.4823 8.41151L35.6253 5.62651C35.2383 5.24951 35.4523 4.59151 35.9863 4.51451L39.9343 3.94051L41.6993 0.363506C41.9383 -0.121494 42.6293 -0.121494 42.8693 0.363506L44.6343 3.94051L48.5823 4.51451C49.1173 4.59251 49.3313 5.24951 48.9433 5.62651L46.0863 8.41151L46.7603 12.3435C46.8513 12.8765 46.2923 13.2825 45.8143 13.0315L42.2853 11.1755Z" fill="#56AAFF"/>
<path d="M57.9986 11.1755L54.4676 13.0315C53.9896 13.2835 53.4296 12.8765 53.5216 12.3435L54.1956 8.41151L51.3386 5.62651C50.9516 5.24951 51.1656 4.59151 51.6996 4.51451L55.6476 3.94051L57.4126 0.363506C57.6516 -0.121494 58.3426 -0.121494 58.5826 0.363506L60.3476 3.94051L64.2956 4.51451C64.8306 4.59251 65.0446 5.24951 64.6566 5.62651L61.7996 8.41151L62.4736 12.3435C62.5646 12.8765 62.0056 13.2825 61.5276 13.0315L57.9986 11.1755Z" fill="#56AAFF"/>
</g>
<defs>
<filter id="filter0_d_219_35" x="0" y="-0.000244141" width="68.855" height="21.1082" filterUnits="userSpaceOnUse" color-interpolation-filters="sRGB">
<feFlood flood-opacity="0" result="BackgroundImageFix"/>
<feColorMatrix in="SourceAlpha" type="matrix" values="0 0 0 0 0 0 0 0 0 0 0 0 0 0 0 0 0 0 127 0" result="hardAlpha"/>
<feOffset dy="4"/>
<feGaussianBlur stdDeviation="2"/>
<feComposite in2="hardAlpha" operator="out"/>
<feColorMatrix type="matrix" values="0 0 0 0 0 0 0 0 0 0 0 0 0 0 0 0 0 0 0.4 0"/>
<feBlend mode="normal" in2="BackgroundImageFix" result="effect1_dropShadow_219_35"/>
<feBlend mode="normal" in="SourceGraphic" in2="effect1_dropShadow_219_35" result="shape"/>
</filter>
</defs>
</svg>
