<svg width="29" height="27" viewBox="0 0 29 27" fill="none" xmlns="http://www.w3.org/2000/svg">
<g clip-path="url(#clip0_58_15)">
<path d="M19.9375 2.53125H9.96875C9.84857 2.53125 9.73332 2.5757 9.64834 2.65481C9.56336 2.73393 9.51562 2.84124 9.51562 2.95312C9.51562 3.06501 9.56336 3.17232 9.64834 3.25144C9.73332 3.33055 9.84857 3.375 9.96875 3.375H19.9375C20.0577 3.375 20.1729 3.33055 20.2579 3.25144C20.3429 3.17232 20.3906 3.06501 20.3906 2.95312C20.3906 2.84124 20.3429 2.73393 20.2579 2.65481C20.1729 2.5757 20.0577 2.53125 19.9375 2.53125ZM19.9375 4.64062H4.53125C4.41107 4.64062 4.29582 4.68507 4.21084 4.76419C4.12586 4.84331 4.07812 4.95061 4.07812 5.0625C4.07812 5.17439 4.12586 5.28169 4.21084 5.36081C4.29582 5.43993 4.41107 5.48438 4.53125 5.48438H19.9375C20.0577 5.48438 20.1729 5.43993 20.2579 5.36081C20.3429 5.28169 20.3906 5.17439 20.3906 5.0625C20.3906 4.95061 20.3429 4.84331 20.2579 4.76419C20.1729 4.68507 20.0577 4.64062 19.9375 4.64062ZM19.9375 6.75H4.53125C4.41107 6.75 4.29582 6.79445 4.21084 6.87356C4.12586 6.95268 4.07812 7.05999 4.07812 7.17188C4.07812 7.28376 4.12586 7.39107 4.21084 7.47019C4.29582 7.5493 4.41107 7.59375 4.53125 7.59375H19.9375C20.0577 7.59375 20.1729 7.5493 20.2579 7.47019C20.3429 7.39107 20.3906 7.28376 20.3906 7.17188C20.3906 7.05999 20.3429 6.95268 20.2579 6.87356C20.1729 6.79445 20.0577 6.75 19.9375 6.75ZM19.9375 8.85938H4.53125C4.41107 8.85938 4.29582 8.90382 4.21084 8.98294C4.12586 9.06206 4.07812 9.16936 4.07812 9.28125C4.07812 9.39314 4.12586 9.50044 4.21084 9.57956C4.29582 9.65868 4.41107 9.70312 4.53125 9.70312H19.9375C20.0577 9.70312 20.1729 9.65868 20.2579 9.57956C20.3429 9.50044 20.3906 9.39314 20.3906 9.28125C20.3906 9.16936 20.3429 9.06206 20.2579 8.98294C20.1729 8.90382 20.0577 8.85938 19.9375 8.85938ZM19.9375 10.9688H4.53125C4.41107 10.9688 4.29582 11.0132 4.21084 11.0923C4.12586 11.1714 4.07812 11.2787 4.07812 11.3906C4.07812 11.5025 4.12586 11.6098 4.21084 11.6889C4.29582 11.7681 4.41107 11.8125 4.53125 11.8125H19.9375C20.0577 11.8125 20.1729 11.7681 20.2579 11.6889C20.3429 11.6098 20.3906 11.5025 20.3906 11.3906C20.3906 11.2787 20.3429 11.1714 20.2579 11.0923C20.1729 11.0132 20.0577 10.9688 19.9375 10.9688ZM19.9375 13.0781H4.53125C4.41107 13.0781 4.29582 13.1226 4.21084 13.2017C4.12586 13.2808 4.07812 13.3881 4.07812 13.5C4.07812 13.6119 4.12586 13.7192 4.21084 13.7983C4.29582 13.8774 4.41107 13.9219 4.53125 13.9219H19.9375C20.0577 13.9219 20.1729 13.8774 20.2579 13.7983C20.3429 13.7192 20.3906 13.6119 20.3906 13.5C20.3906 13.3881 20.3429 13.2808 20.2579 13.2017C20.1729 13.1226 20.0577 13.0781 19.9375 13.0781ZM20.3906 15.6094C20.3906 15.4975 20.3429 15.3902 20.2579 15.3111C20.1729 15.2319 20.0577 15.1875 19.9375 15.1875H4.53125C4.41107 15.1875 4.29582 15.2319 4.21084 15.3111C4.12586 15.3902 4.07812 15.4975 4.07812 15.6094C4.07812 15.7213 4.12586 15.8286 4.21084 15.9077C4.29582 15.9868 4.41107 16.0312 4.53125 16.0312H19.9375C20.0577 16.0312 20.1729 15.9868 20.2579 15.9077C20.3429 15.8286 20.3906 15.7213 20.3906 15.6094ZM8.15625 17.2969H4.98438C4.74411 17.2972 4.51378 17.3861 4.34389 17.5443C4.174 17.7025 4.07842 17.9169 4.07812 18.1406V21.5156C4.07842 21.7393 4.174 21.9538 4.34389 22.1119C4.51378 22.2701 4.74411 22.3591 4.98438 22.3594H8.15625C8.39651 22.3591 8.62684 22.2701 8.79673 22.1119C8.96662 21.9538 9.0622 21.7393 9.0625 21.5156V20.7008L8.1567 21.2562V21.5156H4.98438V18.1406H8.15625V18.2254L8.94854 17.7396C8.87152 17.6063 8.75726 17.4947 8.61781 17.4168C8.47835 17.3389 8.31889 17.2974 8.15625 17.2969Z" fill="black"/>
<path d="M6.73457 19.235C6.67373 19.1385 6.57421 19.0684 6.4579 19.0402C6.34158 19.012 6.21801 19.028 6.11436 19.0847C6.0107 19.1413 5.93546 19.234 5.90519 19.3423C5.87492 19.4506 5.89209 19.5656 5.95293 19.6621L6.59161 20.6746C6.6227 20.7239 6.66424 20.7669 6.7137 20.8008C6.76317 20.8347 6.81952 20.8589 6.87934 20.8718C6.93928 20.8842 7.00126 20.8854 7.0617 20.8754C7.12213 20.8653 7.17982 20.8442 7.23142 20.8132L10.6711 18.7038C10.7693 18.6414 10.8372 18.5456 10.8602 18.437C10.8832 18.3284 10.8594 18.2158 10.794 18.1233C10.7286 18.0309 10.6268 17.9661 10.5106 17.9429C10.3944 17.9197 10.273 17.94 10.1727 17.9993L7.13151 19.864L6.73457 19.235ZM4.53125 24.4688H15.5225C15.3566 24.2122 15.2567 23.9235 15.2307 23.625H4.53125C4.41107 23.625 4.29582 23.6694 4.21084 23.7486C4.12586 23.8277 4.07812 23.935 4.07812 24.0469C4.07812 24.1588 4.12586 24.2661 4.21084 24.3452C4.29582 24.4243 4.41107 24.4688 4.53125 24.4688ZM12.6875 21.5156C12.5673 21.5156 12.4521 21.5601 12.3671 21.6392C12.2821 21.7183 12.2344 21.8256 12.2344 21.9375C12.2344 22.0494 12.2821 22.1567 12.3671 22.2358C12.4521 22.3149 12.5673 22.3594 12.6875 22.3594H14.9599C14.8695 22.3594 15.0902 21.5741 15.1174 21.5156H12.6875ZM18.3337 19.4062H12.6875C12.5673 19.4062 12.4521 19.4507 12.3671 19.5298C12.2821 19.6089 12.2344 19.7162 12.2344 19.8281C12.2344 19.94 12.2821 20.0473 12.3671 20.1264C12.4521 20.2056 12.5673 20.25 12.6875 20.25H18.3108C18.2844 20.0919 18.2756 19.9318 18.2845 19.772C18.2958 19.6741 18.3112 19.5482 18.3337 19.4062ZM19.4855 17.2969H12.6875C12.5673 17.2969 12.4521 17.3413 12.3671 17.4204C12.2821 17.4996 12.2344 17.6069 12.2344 17.7188C12.2344 17.8306 12.2821 17.9379 12.3671 18.0171C12.4521 18.0962 12.5673 18.1406 12.6875 18.1406H18.7394C18.9135 17.8087 19.1691 17.5197 19.4855 17.2969Z" fill="black"/>
<path d="M3.17188 26.1562C3.05174 26.1561 2.93655 26.1117 2.8516 26.0326C2.76665 25.9535 2.71887 25.8462 2.71875 25.7344V1.26562C2.71887 1.15377 2.76665 1.04653 2.8516 0.967438C2.93655 0.888345 3.05174 0.843862 3.17188 0.84375H21.2969C21.417 0.843862 21.5322 0.888345 21.6171 0.967438C21.7021 1.04653 21.7499 1.15377 21.75 1.26562V17.0689C21.921 17.1443 22.0816 17.2389 22.228 17.3505C22.3941 17.4765 22.5385 17.6255 22.6562 17.7922V1.26562C22.6558 0.93008 22.5125 0.608391 22.2576 0.371125C22.0028 0.133859 21.6573 0.000390785 21.2969 0L3.17188 0C2.81148 0.000390785 2.46596 0.133859 2.21112 0.371125C1.95627 0.608391 1.81292 0.93008 1.8125 1.26562V25.7344C1.81292 26.0699 1.95627 26.3916 2.21112 26.6289C2.46596 26.8661 2.81148 26.9996 3.17188 27H16.3309C16.1392 26.7496 16.0141 26.4604 15.9656 26.1562H3.17188Z" fill="black"/>
<path d="M26.5078 21.5156H24.2422C24.0643 21.5157 23.8935 21.5809 23.7669 21.6972C23.6112 21.654 23.4649 21.6122 23.3493 21.5785C23.3212 21.5361 22.4748 20.2637 22.3397 19.9538C22.3397 19.8157 22.3386 19.6777 22.3459 19.5398C22.3647 19.1875 22.3996 18.5317 21.7874 18.0617C21.5565 17.8875 21.278 17.7767 20.9832 17.7418C20.6884 17.7068 20.3889 17.7491 20.1185 17.8639C19.1103 18.2914 18.9708 19.4959 18.9112 20.0102C18.9167 20.3182 18.9608 20.6246 19.0426 20.9231L17.3751 20.9246C17.1796 20.9162 16.9843 20.9448 16.801 21.0086C16.6178 21.0725 16.4503 21.1702 16.3086 21.2959C16.167 21.4216 16.0542 21.5727 15.977 21.7401C15.8997 21.9075 15.8598 22.0878 15.8594 22.2699C15.8591 22.5614 15.9577 22.8454 16.141 23.0816C16.1154 23.1778 16.1025 23.2766 16.1025 23.3757C16.1023 23.6835 16.2123 23.9826 16.4151 24.2258C16.3963 24.3116 16.3867 24.399 16.3866 24.4867C16.3865 24.8328 16.5251 25.1665 16.7754 25.4224C16.7678 25.4809 16.7641 25.5397 16.764 25.5985C16.7661 25.9712 16.9269 26.3278 17.211 26.5903C17.4952 26.8527 17.8795 26.9995 18.2797 26.9985L22.2344 26.9975C22.5287 26.9759 22.8099 26.875 23.0437 26.707L23.0686 26.6918C23.1642 26.6918 23.5806 26.7043 23.6699 26.7055C23.7309 26.7955 23.8154 26.8697 23.9154 26.9212C24.0155 26.9727 24.1279 26.9998 24.2422 27H26.5078C26.688 26.9998 26.8608 26.9331 26.9882 26.8145C27.1157 26.6958 27.1873 26.535 27.1875 26.3672V22.1484C27.1873 21.9807 27.1157 21.8198 26.9882 21.7012C26.8608 21.5825 26.688 21.5158 26.5078 21.5156ZM23.5625 25.8597C23.3116 25.8228 23.0557 25.8256 22.8058 25.8679C22.6026 25.9371 22.446 26.0985 22.2333 26.1537L18.28 26.1548C18.2007 26.1556 18.122 26.1418 18.0485 26.1142C17.9749 26.0867 17.9079 26.0459 17.8513 25.9943C17.7947 25.9426 17.7496 25.8811 17.7185 25.8132C17.6874 25.7453 17.6711 25.6723 17.6703 25.5985C17.6838 25.3957 17.7646 25.2017 17.9014 25.0433C17.7414 25.0445 17.5875 24.9866 17.4734 24.8822C17.3593 24.7778 17.2944 24.6356 17.2928 24.4867C17.3231 24.27 17.4397 24.0719 17.6195 23.9315C17.4594 23.9332 17.305 23.8756 17.1904 23.7714C17.0759 23.6671 17.0104 23.5248 17.0085 23.3757C17.0085 23.0962 17.376 22.8258 17.376 22.8258C17.2967 22.8266 17.218 22.8129 17.1444 22.7855C17.0708 22.758 17.0037 22.7173 16.9471 22.6656C16.8904 22.614 16.8452 22.5525 16.814 22.4846C16.7829 22.4167 16.7665 22.3438 16.7656 22.2699C16.7677 22.1989 16.7854 22.1289 16.8177 22.0645C16.8501 22.0001 16.8963 21.9425 16.9536 21.8955C17.0108 21.8484 17.0779 21.8128 17.1506 21.791C17.2232 21.7691 17.3 21.7614 17.376 21.7683L20.2375 21.766C20.1641 21.674 19.7853 20.3447 19.8122 20.1007C19.865 19.6442 19.9812 18.8492 20.4998 18.6294C20.6141 18.5769 20.7424 18.5568 20.8687 18.5716C20.9951 18.5864 21.1141 18.6355 21.2108 18.7127C21.5919 19.0055 21.4335 19.6499 21.4335 20.0507C21.4335 20.3899 22.6569 22.1086 22.7346 22.2676C23.0051 22.367 23.2815 22.4517 23.5625 22.5212V25.8597ZM26.2813 26.1563H24.4688V22.3594H26.2813V26.1563Z" fill="black"/>
</g>
<defs>
<clipPath id="clip0_58_15">
<rect width="29" height="27" fill="white"/>
</clipPath>
</defs>
</svg>
